<svg width="136" height="36" viewBox="0 0 136 36" fill="none" xmlns="http://www.w3.org/2000/svg">
<path d="M37.302 17V2.258L47.571 2.258V4.589L40.305 4.589V8.369L47.193 8.369V10.721L40.305 10.721V17H37.302ZM48.5572 17V2.258L51.4972 2.258V17H48.5572ZM63.2596 11.561C63.2596 14.858 61.0126 17.168 57.8626 17.168C54.7126 17.168 52.4656 14.858 52.4656 11.561C52.4656 8.264 54.7126 5.975 57.8626 5.975C61.0126 5.975 63.2596 8.264 63.2596 11.561ZM55.4266 11.561C55.4266 13.598 56.3716 14.879 57.8626 14.879C59.3746 14.879 60.3196 13.598 60.3196 11.561C60.3196 9.566 59.3746 8.306 57.8626 8.306C56.3716 8.306 55.4266 9.566 55.4266 11.561ZM73.7813 17H71.0303C70.9043 16.601 70.8203 16.202 70.7573 15.803C69.9803 16.622 68.9093 17.168 67.6913 17.168C65.4653 17.168 63.9743 15.551 63.9743 13.073V6.164L66.9353 6.164V12.674C66.9353 14.081 67.5443 14.858 68.6153 14.858C69.8333 14.858 70.6523 13.934 70.6523 12.275V6.164L73.5923 6.164V13.724C73.5923 15.425 73.6343 16.118 73.7813 17ZM74.7847 6.164L77.5357 6.164C77.6617 6.563 77.7457 6.962 77.8087 7.361C78.5437 6.542 79.5517 5.996 80.6857 5.996L80.9797 8.453C80.7697 8.411 80.5807 8.411 80.3917 8.411C78.8167 8.411 77.9137 9.587 77.9137 11.456V17H74.9737V9.44C74.9737 7.739 74.9317 7.046 74.7847 6.164ZM81.6191 17V6.164L84.5591 6.164V17H81.6191ZM81.4721 4.988V2.09L84.7061 2.09V4.988L81.4721 4.988ZM90.1475 5.975C92.6255 5.975 94.4735 7.382 94.7465 9.146L91.9325 9.65C91.7015 8.831 91.0085 8.306 90.1475 8.306C89.3285 8.306 88.8245 8.642 88.8245 9.167C88.8245 9.692 89.2445 9.965 90.4625 10.28C92.6045 10.826 94.9565 11.477 94.9565 13.85C94.9565 15.551 93.2555 17.189 90.5465 17.189C87.8165 17.189 85.8005 15.593 85.4855 13.598L88.3415 13.094C88.5515 14.186 89.4125 14.879 90.5465 14.879C91.5335 14.879 92.0165 14.417 92.0165 13.808C92.0165 13.367 91.5965 12.968 90.6935 12.737C88.2785 12.149 85.9055 11.561 85.9055 9.167C85.9055 7.34 87.6905 5.975 90.1475 5.975ZM98.8751 2.258V7.256C99.6521 6.5 100.681 5.996 101.836 5.996C104.062 5.996 105.553 7.613 105.553 10.091V17H102.592V10.49C102.592 9.083 101.983 8.306 100.912 8.306C99.6941 8.306 98.8751 9.23 98.8751 10.889V17H95.9351V2.258L98.8751 2.258Z" fill="#111110" style="fill:#111110;fill:color(display-p3 0.0667 0.0667 0.0627);fill-opacity:1;"/>
<path d="M36.113 27.65C36.113 23.219 39.074 20.09 43.274 20.09C46.277 20.09 48.965 22.022 49.805 24.752L47.033 25.655C46.655 23.807 45.08 22.505 43.274 22.505C40.859 22.505 39.158 24.626 39.158 27.65C39.158 30.674 40.859 32.795 43.274 32.795C45.101 32.795 46.676 31.409 47.033 29.456L49.784 30.401C49.112 33.215 46.424 35.189 43.274 35.189C39.074 35.189 36.113 32.081 36.113 27.65ZM61.2129 29.561C61.2129 32.858 58.9659 35.168 55.8159 35.168C52.6659 35.168 50.4189 32.858 50.4189 29.561C50.4189 26.264 52.6659 23.975 55.8159 23.975C58.9659 23.975 61.2129 26.264 61.2129 29.561ZM53.3799 29.561C53.3799 31.598 54.3249 32.879 55.8159 32.879C57.3279 32.879 58.2729 31.598 58.2729 29.561C58.2729 27.566 57.3279 26.306 55.8159 26.306C54.3249 26.306 53.3799 27.566 53.3799 29.561ZM71.6506 28.889V35H68.6896V28.49C68.6896 27.083 68.1016 26.306 67.0936 26.306C65.9176 26.306 65.1406 27.23 65.1406 28.889V35H62.2006V27.44C62.2006 25.739 62.1586 25.046 62.0116 24.164H64.7626C64.8886 24.563 64.9726 24.962 65.0356 25.361C65.7916 24.542 66.8416 23.996 68.0176 23.996C69.4036 23.996 70.4956 24.647 71.1046 25.739C71.9866 24.5 72.9946 23.996 74.5276 23.996C76.7116 23.996 78.1606 25.613 78.1606 28.091V35H75.1996V28.49C75.1996 27.083 74.6116 26.306 73.6036 26.306C72.4276 26.306 71.6506 27.23 71.6506 28.889ZM88.7139 28.889V35H85.7529V28.49C85.7529 27.083 85.1649 26.306 84.1569 26.306C82.9809 26.306 82.2039 27.23 82.2039 28.889V35H79.2639V27.44C79.2639 25.739 79.2219 25.046 79.0749 24.164H81.8259C81.9519 24.563 82.0359 24.962 82.0989 25.361C82.8549 24.542 83.9049 23.996 85.0809 23.996C86.4669 23.996 87.5589 24.647 88.1679 25.739C89.0499 24.5 90.0579 23.996 91.5909 23.996C93.7749 23.996 95.2239 25.613 95.2239 28.091V35H92.2629V28.49C92.2629 27.083 91.6749 26.306 90.6669 26.306C89.4909 26.306 88.7139 27.23 88.7139 28.889ZM95.9282 29.561C95.9282 26.285 98.1542 23.975 101.325 23.975C104.496 23.975 106.722 26.285 106.722 29.561V30.317H98.9312C99.1412 31.892 100.023 32.837 101.325 32.837C102.396 32.837 103.32 32.228 103.719 31.241L106.449 31.913C105.861 33.824 103.929 35.168 101.325 35.168C98.1542 35.168 95.9282 32.858 95.9282 29.561ZM101.325 26.306C100.191 26.306 99.3722 27.041 99.0362 28.28H103.635C103.341 27.062 102.459 26.306 101.325 26.306ZM107.398 24.164L110.149 24.164C110.275 24.563 110.359 24.962 110.422 25.361C111.157 24.542 112.165 23.996 113.299 23.996L113.593 26.453C113.383 26.411 113.194 26.411 113.005 26.411C111.43 26.411 110.527 27.587 110.527 29.456V35H107.587V27.44C107.587 25.739 107.545 25.046 107.398 24.164ZM113.628 29.561C113.628 26.264 115.875 23.975 119.025 23.975C121.839 23.975 123.771 25.823 124.149 27.44L121.293 28.154C120.978 27.02 120.117 26.306 119.025 26.306C117.534 26.306 116.589 27.566 116.589 29.561C116.589 31.577 117.534 32.837 119.025 32.837C120.075 32.837 120.957 32.144 121.314 31.052L124.149 31.766C123.792 33.32 121.839 35.168 119.025 35.168C115.875 35.168 113.628 32.858 113.628 29.561ZM124.498 29.561C124.498 26.285 126.724 23.975 129.895 23.975C133.066 23.975 135.292 26.285 135.292 29.561V30.317H127.501C127.711 31.892 128.593 32.837 129.895 32.837C130.966 32.837 131.89 32.228 132.289 31.241L135.019 31.913C134.431 33.824 132.499 35.168 129.895 35.168C126.724 35.168 124.498 32.858 124.498 29.561ZM129.895 26.306C128.761 26.306 127.942 27.041 127.606 28.28H132.205C131.911 27.062 131.029 26.306 129.895 26.306Z" fill="#111110" style="fill:#111110;fill:color(display-p3 0.0667 0.0667 0.0627);fill-opacity:1;"/>
<path d="M25.9392 0C22.4165 2.56446 21.2726 3.36149 13.0021 4.01368C3.8155 4.73829 1.79338 9.64739 1.53711 13.1213C1.53752 13.1205 1.53793 13.1201 1.53835 13.1192L1.75707 12.7716C1.8264 12.6528 1.9143 12.5484 1.99601 12.4389L2.24568 12.1139C2.42643 11.9103 2.61131 11.71 2.80073 11.5149C3.00212 11.3339 3.19566 11.1418 3.4053 10.9722C4.2418 10.2864 5.18147 9.75219 6.15745 9.35261L6.5268 9.21203C6.65019 9.16603 6.77193 9.11533 6.89821 9.07997C7.14911 9.00457 7.39755 8.92151 7.64969 8.8542L8.4086 8.67358L9.16298 8.54152C11.1781 8.21862 13.1552 8.23268 15.087 8.00563C16.0526 7.88763 17.0117 7.70573 17.9448 7.39561C18.8795 7.09145 19.7816 6.6612 20.647 6.14448L20.6631 6.16791C19.8769 6.80263 19.0037 7.34364 18.0706 7.7594C17.1371 8.17474 16.15 8.46442 15.1592 8.66208C14.1679 8.86613 13.1738 8.98668 12.1941 9.11448C11.2144 9.24568 10.2463 9.37007 9.29875 9.57071L8.59183 9.73174L7.90349 9.92173C7.6761 9.99117 7.45326 10.0755 7.22835 10.1509C7.11486 10.1863 7.00674 10.2365 6.89738 10.2821L6.5693 10.4206C5.70185 10.8027 4.88475 11.2926 4.16793 11.8898C3.44905 12.4836 2.84117 13.1967 2.41446 13.9904C2.09794 14.5693 1.67164 15.5878 1.81897 16.6179L1.82021 16.6221C10.4072 11.7944 14.1209 15.5163 19.3004 12.8577C27.1046 8.85207 25.9392 0 25.9392 0Z" fill="#6DDB73" style="fill:#6DDB73;fill:color(display-p3 0.4293 0.8603 0.4518);fill-opacity:1;"/>
<path d="M10.9345 16.6157C4.22185 16.3721 2.53771 19.9397 2.20097 22.5647C3.16044 21.2109 4.59986 20.3662 6.16969 19.9917C8.19387 19.5091 10.2304 19.858 12.2765 19.8401C12.9838 19.8337 13.6891 19.7783 14.3816 19.6228C15.0744 19.472 15.7492 19.2219 16.4012 18.9033L16.4119 18.9225C15.8123 19.3382 15.1541 19.6748 14.4571 19.9112C13.7601 20.1468 13.0296 20.2822 12.3004 20.347C10.3996 20.5285 8.47862 20.3184 6.60506 20.7789C4.92175 21.1926 3.361 22.1242 2.35531 23.5981C1.45484 24.9183 0.975727 26.5324 0.898556 28.1383C0.849447 29.1671 0.964173 30.2155 1.29803 31.1914C1.48415 31.7614 1.73794 32.3079 2.0458 32.8183C2.51914 33.6025 3.10514 34.3045 3.73943 34.9597C5.58946 36.924 7.63263 35.8496 6.76559 33.8688C6.47796 33.2123 5.75495 32.457 5.38354 32.0434C3.87437 30.362 2.25874 29.179 2.25874 27.28C2.25874 26.3053 2.99826 24.6516 5.69057 24.1468C9.77319 23.3992 12.0215 25.1679 15.1289 23.9049C20.9794 21.5266 20.5177 14.6766 20.5177 14.6766C17.8439 16.3265 16.9773 16.8351 10.9345 16.6157Z" fill="#6DDB73" style="fill:#6DDB73;fill:color(display-p3 0.4293 0.8603 0.4518);fill-opacity:1;"/>
</svg>
